<svg xmlns="http://www.w3.org/2000/svg" width="32" height="32" viewBox="0 0 32 32">
  <g id="icon_content_copy_24px" data-name="icon/content/copy_24px" opacity="1.0">
    <rect id="Boundary" width="32" height="32" fill="none"/>
    <path id="_Color" data-name=" ↳Color" d="M24.158,30H8.527a2.79,2.79,0,0,1-2.843-2.727V8.182A2.791,2.791,0,0,1,8.527,5.454H24.158A2.79,2.79,0,0,1,27,8.182V27.273A2.789,2.789,0,0,1,24.158,30ZM8.527,8.182V27.273H24.158V8.182ZM2.842,21.819H0V2.727A2.789,2.789,0,0,1,2.842,0H19.9V2.727H2.842v19.09Z" transform="translate(2 1)" fill="#cba25b"/>
  </g>
</svg>
