<svg xmlns="http://www.w3.org/2000/svg" width="47" height="47" viewBox="0 0 47 47">
  <g id="Group_71" data-name="Group 71" transform="translate(-1093 -2361)">
    <path id="Icon_feather-github" data-name="Icon feather-github" d="M10.83,21.625C5.237,23.3,5.237,18.828,3,18.269M18.66,24.98V20.651a3.77,3.77,0,0,0-1.051-2.92c3.512-.392,7.2-1.723,7.2-7.83a6.085,6.085,0,0,0-1.677-4.194,5.671,5.671,0,0,0-.1-4.218S21.714,1.1,18.66,3.145a14.967,14.967,0,0,0-7.83,0C7.776,1.1,6.456,1.49,6.456,1.49a5.671,5.671,0,0,0-.1,4.217A6.085,6.085,0,0,0,4.678,9.935c0,6.063,3.691,7.394,7.2,7.83a3.77,3.77,0,0,0-1.051,2.886V24.98" transform="translate(1102.5 2371.04)" fill="none" stroke="#cba25b" stroke-linecap="round" stroke-linejoin="round" stroke-width="1"/>
    <g id="Group_49" data-name="Group 49" transform="translate(1093 2361)">
      <g id="Path_8" data-name="Path 8" fill="none">
        <path d="M23.5,0A23.5,23.5,0,1,1,0,23.5,23.5,23.5,0,0,1,23.5,0Z" stroke="none"/>
        <path d="M 23.5 2 C 20.59663963317871 2 17.78117942810059 2.568180084228516 15.13183975219727 3.688758850097656 C 12.57188034057617 4.771530151367188 10.27236938476563 6.322040557861328 8.297199249267578 8.297199249267578 C 6.322040557861328 10.27236938476563 4.771530151367188 12.57188034057617 3.688758850097656 15.13183975219727 C 2.568180084228516 17.78117942810059 2 20.59663963317871 2 23.5 C 2 26.40336036682129 2.568180084228516 29.21882057189941 3.688758850097656 31.86816024780273 C 4.771530151367188 34.42811965942383 6.322040557861328 36.72763061523438 8.297199249267578 38.70280075073242 C 10.27236938476563 40.67795944213867 12.57188034057617 42.22846984863281 15.13183975219727 43.31124114990234 C 17.78117942810059 44.43181991577148 20.59663963317871 45 23.5 45 C 26.40336036682129 45 29.21882057189941 44.43181991577148 31.86816024780273 43.31124114990234 C 34.42811965942383 42.22846984863281 36.72763061523438 40.67795944213867 38.70280075073242 38.70280075073242 C 40.67795944213867 36.72763061523438 42.22846984863281 34.42811965942383 43.31124114990234 31.86816024780273 C 44.43181991577148 29.21882057189941 45 26.40336036682129 45 23.5 C 45 20.59663963317871 44.43181991577148 17.78117942810059 43.31124114990234 15.13183975219727 C 42.22846984863281 12.57188034057617 40.67795944213867 10.27236938476563 38.70280075073242 8.297199249267578 C 36.72763061523438 6.322040557861328 34.42811965942383 4.771530151367188 31.86816024780273 3.688758850097656 C 29.21882057189941 2.568180084228516 26.40336036682129 2 23.5 2 M 23.5 0 C 36.47869110107422 0 47 10.52130889892578 47 23.5 C 47 36.47869110107422 36.47869110107422 47 23.5 47 C 10.52130889892578 47 0 36.47869110107422 0 23.5 C 0 10.52130889892578 10.52130889892578 0 23.5 0 Z" stroke="none" fill="#cba25b"/>
      </g>
    </g>
  </g>
</svg>
