<svg xmlns="http://www.w3.org/2000/svg" width="47" height="47" viewBox="0 0 47 47">
  <g id="Group_69" data-name="Group 69" transform="translate(-884 -2361)">
    <path id="Icon_open-home" data-name="Icon open-home" d="M11.478,0,0,8.608H2.869V20.086H8.608V14.347h5.739v5.739h5.739V8.522l2.869.086Z" transform="translate(896 2374)" fill="#cba25b"/>
    <g id="Group_47" data-name="Group 47" transform="translate(364 1767)">
      <g id="Group_68" data-name="Group 68">
        <g id="Group_11" data-name="Group 11" transform="translate(520 594)">
          <g id="Path_9" data-name="Path 9" fill="none">
            <path d="M23.5,0A23.5,23.5,0,1,1,0,23.5,23.5,23.5,0,0,1,23.5,0Z" stroke="none"/>
            <path d="M 23.5 2 C 20.59663963317871 2 17.78117942810059 2.568180084228516 15.13183975219727 3.688758850097656 C 12.57188034057617 4.771530151367188 10.27236938476563 6.322040557861328 8.297199249267578 8.297199249267578 C 6.322040557861328 10.27236938476563 4.771530151367188 12.57188034057617 3.688758850097656 15.13183975219727 C 2.568180084228516 17.78117942810059 2 20.59663963317871 2 23.5 C 2 26.40336036682129 2.568180084228516 29.21882057189941 3.688758850097656 31.86816024780273 C 4.771530151367188 34.42811965942383 6.322040557861328 36.72763061523438 8.297199249267578 38.70280075073242 C 10.27236938476563 40.67795944213867 12.57188034057617 42.22846984863281 15.13183975219727 43.31124114990234 C 17.78117942810059 44.43181991577148 20.59663963317871 45 23.5 45 C 26.40336036682129 45 29.21882057189941 44.43181991577148 31.86816024780273 43.31124114990234 C 34.42811965942383 42.22846984863281 36.72763061523438 40.67795944213867 38.70280075073242 38.70280075073242 C 40.67795944213867 36.72763061523438 42.22846984863281 34.42811965942383 43.31124114990234 31.86816024780273 C 44.43181991577148 29.21882057189941 45 26.40336036682129 45 23.5 C 45 20.59663963317871 44.43181991577148 17.78117942810059 43.31124114990234 15.13183975219727 C 42.22846984863281 12.57188034057617 40.67795944213867 10.27236938476563 38.70280075073242 8.297199249267578 C 36.72763061523438 6.322040557861328 34.42811965942383 4.771530151367188 31.86816024780273 3.688758850097656 C 29.21882057189941 2.568180084228516 26.40336036682129 2 23.5 2 M 23.5 0 C 36.47869110107422 0 47 10.52130889892578 47 23.5 C 47 36.47869110107422 36.47869110107422 47 23.5 47 C 10.52130889892578 47 0 36.47869110107422 0 23.5 C 0 10.52130889892578 10.52130889892578 0 23.5 0 Z" stroke="none" fill="#cba25b"/>
          </g>
        </g>
      </g>
    </g>
  </g>
</svg>
