<svg xmlns="http://www.w3.org/2000/svg" width="74.668" height="74.668" viewBox="0 0 74.668 74.668">
  <g id="icon_action_cached_24px" data-name="icon/action/cached_24px" transform="translate(40.6) rotate(50)">
    <g id="Group_73" data-name="Group 73" transform="translate(0)">
      <rect id="Boundary" width="53" height="53" fill="none"/>
    </g>
    <path id="_Color" data-name=" ↳Color" d="M25.5,45a16.137,16.137,0,0,1-9.875-3.488l3.384-4.106A11.789,11.789,0,0,0,25.5,39.376c7.67,0,13.91-7.57,13.91-16.876H32.456l9.272-11.251L51,22.5H44.046C44.046,34.905,35.725,45,25.5,45ZM9.272,33.749l0,0L0,22.5H6.954C6.954,10.095,15.275,0,25.5,0a16.14,16.14,0,0,1,9.877,3.488L31.991,7.594A11.789,11.789,0,0,0,25.5,5.624c-7.669,0-13.908,7.57-13.908,16.876h6.954L9.274,33.747Z" transform="translate(1 4)" fill="#cba25b"/>
  </g>
</svg>
