<svg xmlns="http://www.w3.org/2000/svg" width="47" height="47" viewBox="0 0 47 47">
  <g id="Group_70" data-name="Group 70" transform="translate(-989 -2361)">
    <path id="Icon_awesome-twitter" data-name="Icon awesome-twitter" d="M20.27,7.954c.014.2.014.4.014.6A13.084,13.084,0,0,1,7.11,21.73,13.085,13.085,0,0,1,0,19.651a9.579,9.579,0,0,0,1.118.057A9.273,9.273,0,0,0,6.867,17.73a4.638,4.638,0,0,1-4.329-3.211,5.839,5.839,0,0,0,.874.072,4.9,4.9,0,0,0,1.218-.158A4.631,4.631,0,0,1,.917,9.889V9.832a4.663,4.663,0,0,0,2.093.588A4.637,4.637,0,0,1,1.577,4.227a13.161,13.161,0,0,0,9.547,4.845,5.227,5.227,0,0,1-.115-1.061,4.635,4.635,0,0,1,8.013-3.168,9.116,9.116,0,0,0,2.939-1.118,4.618,4.618,0,0,1-2.036,2.552,9.282,9.282,0,0,0,2.666-.717A9.953,9.953,0,0,1,20.27,7.954Z" transform="translate(1001 2371.619)" fill="#cba25b"/>
    <g id="Group_50" data-name="Group 50" transform="translate(989 2361)">
      <g id="Path_8" data-name="Path 8" fill="none">
        <path d="M23.5,0A23.5,23.5,0,1,1,0,23.5,23.5,23.5,0,0,1,23.5,0Z" stroke="none"/>
        <path d="M 23.5 2 C 20.59663963317871 2 17.78117942810059 2.568180084228516 15.13183975219727 3.688758850097656 C 12.57188034057617 4.771530151367188 10.27236938476563 6.322040557861328 8.297199249267578 8.297199249267578 C 6.322040557861328 10.27236938476563 4.771530151367188 12.57188034057617 3.688758850097656 15.13183975219727 C 2.568180084228516 17.78117942810059 2 20.59663963317871 2 23.5 C 2 26.40336036682129 2.568180084228516 29.21882057189941 3.688758850097656 31.86816024780273 C 4.771530151367188 34.42811965942383 6.322040557861328 36.72763061523438 8.297199249267578 38.70280075073242 C 10.27236938476563 40.67795944213867 12.57188034057617 42.22846984863281 15.13183975219727 43.31124114990234 C 17.78117942810059 44.43181991577148 20.59663963317871 45 23.5 45 C 26.40336036682129 45 29.21882057189941 44.43181991577148 31.86816024780273 43.31124114990234 C 34.42811965942383 42.22846984863281 36.72763061523438 40.67795944213867 38.70280075073242 38.70280075073242 C 40.67795944213867 36.72763061523438 42.22846984863281 34.42811965942383 43.31124114990234 31.86816024780273 C 44.43181991577148 29.21882057189941 45 26.40336036682129 45 23.5 C 45 20.59663963317871 44.43181991577148 17.78117942810059 43.31124114990234 15.13183975219727 C 42.22846984863281 12.57188034057617 40.67795944213867 10.27236938476563 38.70280075073242 8.297199249267578 C 36.72763061523438 6.322040557861328 34.42811965942383 4.771530151367188 31.86816024780273 3.688758850097656 C 29.21882057189941 2.568180084228516 26.40336036682129 2 23.5 2 M 23.5 0 C 36.47869110107422 0 47 10.52130889892578 47 23.5 C 47 36.47869110107422 36.47869110107422 47 23.5 47 C 10.52130889892578 47 0 36.47869110107422 0 23.5 C 0 10.52130889892578 10.52130889892578 0 23.5 0 Z" stroke="none" fill="#cba25b"/>
      </g>
    </g>
  </g>
</svg>
